<svg xmlns="http://www.w3.org/2000/svg" width="195.362" height="38" viewBox="0 0 195.362 38">
  <path id="Контур_264" data-name="Контур 264" d="M3594.057,117v-1.933l-11.965,0V117H3580.1v-1.938l-11.968,0V117h-1.995v-1.942l-11.968,0V117h-1.994v-1.947l-11.968,0V117h-1.995v-1.952l-11.966,0V117h-1.994v-1.957l-11.968,0V117h-1.994v-1.962l-11.968,0V117h-1.995v-1.967l-11.968,0V117h-1.995v-1.972l-11.966,0V117h-2v-1.977l-11.966,0V117h-1.994v-1.981l-11.968,0V117h-1.994v-1.986l-11.968,0V117h-1.994v-1.991l-11.969,0v2h-1.994v-2l-5.326,0v-33.6l5.326,0V79h1.994v2.408l11.969,0V79h1.994v2.413l11.968,0V79h1.994v2.418l11.968,0V79h1.994v2.423l11.966,0V79h2v2.427l11.966,0V79h1.995v2.432l11.968,0V79h1.995v2.437l11.968,0V79h1.994v2.442l11.968,0V79h1.994v2.447l11.966,0V79h1.995v2.452l11.968,0V79h1.994v2.457l11.968,0V79h1.995v2.462l11.968,0V79h1.995v2.466l11.965,0V79h2v2.471l6.538,0v33.6l-6.538,0V117Zm-180.849-7.365,183.429.068V86.631l-183.429-.068Zm162.326-2.754V89.9h16.983v16.983Zm5.981-5.581h5.049V95.454h-5.049Zm-14.194,5.581-2.011-3.188h-2.375v3.188h-5.98V89.9h16.985v13.8h-2.632l2.6,3.188Zm-4.386-8.239h5.449V95.055h-5.449Zm-24.558,8.239V89.9h17.01v13.8h-11.429v3.188Zm5.979-7.972h5.45V95.055h-5.45Zm-30.114,7.972V95.188h-5.581V89.9h16.744v5.29H3519.8v11.693Zm-13.023,0L3495.9,100v6.884h-5.847V89.9h5.847l5.315,6.884V89.9h5.821v16.983Zm-29.768,0V89.9h16.983v16.983Zm5.979-5.581h5.051V95.454h-5.051Zm-13.208,5.581V99.972l-1.2.93h-3.456l-1.2-.93v6.909h-5.554V89.9h5.847l2.631,4.253,2.684-4.253h5.822v16.983Zm-28.388,0V89.9h15.417v5.29l-9.833-.133v1.222h8.5v4.278h-8.5v1.011h9.833v5.315Zm-8.212,0-1.972-3.188h-2.414v3.188h-5.98V89.9h16.984v13.8h-2.632l2.6,3.188Zm-4.386-8.239h5.45V95.055h-5.45Z" transform="translate(-3407.229 -79)" fill="#070606"/>
</svg>
