<svg xmlns="http://www.w3.org/2000/svg" width="80.554" height="12.506" viewBox="0 0 80.554 12.506">
  <g id="Сгруппировать_3" data-name="Сгруппировать 3" transform="translate(-127 -51.761)">
    <g id="Сгруппировать_2" data-name="Сгруппировать 2" transform="translate(127 51.761)">
      <path id="Контур_76" data-name="Контур 76" d="M16.741-17.656V-28.849l-6.933,5.34L2.9-28.849v11.193H5.636v-5.852l4.172,3.1L14-23.508v5.852ZM42.621-28.849v11.193h4.827c3.913,0,7.072-2.334,7.072-5.6,0-3.246-3.158-5.6-7.072-5.6Zm2.741,9.114V-26.77h2.086c2.424,0,4.331,1.263,4.331,3.518,0,2.271-1.907,3.518-4.331,3.518Zm24.4-9.114H67.018V-22.4a2.6,2.6,0,0,1-2.9,2.782,2.6,2.6,0,0,1-2.9-2.782v-6.444H58.476v6.492c0,3.23,2.7,4.813,5.642,4.813,2.92,0,5.642-1.583,5.642-4.813Zm13.69,11.193v-2.079H77.192v-9.114H74.451v11.193Z" transform="translate(-2.895 29.445)"/>
      <path id="Контур_78" data-name="Контур 78" d="M4.549-1.7A6.249,6.249,0,1,1-1.7,4.549,6.256,6.256,0,0,1,4.549-1.7Zm0,9.75a3.5,3.5,0,1,0-3.5-3.5A3.5,3.5,0,0,0,4.549,8.05Z" transform="translate(19.547 1.7)"/>
      <path id="Контур_77" data-name="Контур 77" d="M4.549-1.7A6.249,6.249,0,1,1-1.7,4.549,6.256,6.256,0,0,1,4.549-1.7Zm0,9.75a3.5,3.5,0,1,0-3.5-3.5A3.5,3.5,0,0,0,4.549,8.05Z" transform="translate(25.205 1.7)"/>
    </g>
    <path id="Контур_37" data-name="Контур 37" d="M4.547-1.7A6.247,6.247,0,1,1-1.7,4.547,6.318,6.318,0,0,1,2.833-1.46,5.785,5.785,0,0,1,4.547-1.7Z" transform="translate(146.502 53.473)"/>
    <path id="Контур_79" data-name="Контур 79" d="M6.671,6.471A6.254,6.254,0,0,1,10.09.9,6.293,6.293,0,0,1,12.455,3a3.5,3.5,0,0,0,0,6.938,6.291,6.291,0,0,1-2.365,2.1A6.254,6.254,0,0,1,6.671,6.471Z" transform="translate(143.768 51.519)" fill="none"/>
  </g>
</svg>
