<svg id="phone-24px" xmlns="http://www.w3.org/2000/svg" width="19.057" height="19.057" viewBox="0 0 19.057 19.057">
  <path id="Контур_271" data-name="Контур 271" d="M0,0H19.057V19.057H0Z" fill="none"/>
  <path id="Контур_272" data-name="Контур 272" d="M5.874,9.185a12.028,12.028,0,0,0,5.233,5.233l1.747-1.747a.789.789,0,0,1,.81-.191,9.057,9.057,0,0,0,2.835.453.8.8,0,0,1,.794.794V16.5a.8.8,0,0,1-.794.794A13.5,13.5,0,0,1,3,3.794.8.8,0,0,1,3.794,3H6.573a.8.8,0,0,1,.794.794A9.02,9.02,0,0,0,7.82,6.629a.8.8,0,0,1-.2.81Z" transform="translate(-0.618 -0.618)"/>
</svg>
