<svg xmlns="http://www.w3.org/2000/svg" width="138" height="138" viewBox="0 0 138 138">
  <g id="Сгруппировать_1949" data-name="Сгруппировать 1949" transform="translate(-98 -1892)">
    <rect id="Прямоугольник_43" data-name="Прямоугольник 43" width="138" height="138" rx="16" transform="translate(98 1892)" fill="#b9e9ff"/>
    <path id="_1231231231231" data-name="1231231231231" d="M9096.666-5567.818a2.417,2.417,0,0,1-.826-.14,2.829,2.829,0,0,1-1.559-1.548l-8.46-19.737,0-.007a4.52,4.52,0,0,1-.4-1.882,3.957,3.957,0,0,1,.523-1.644l0,0,2.838-5.647a.657.657,0,0,1-.446-.065,20.639,20.639,0,0,1-2.865-1.9,8.477,8.477,0,0,1-1.82-1.908,2.576,2.576,0,0,1-.35-2.453,2.044,2.044,0,0,1,1.7-1.225c1.133-.136,2.56.445,4.239,1.718a35.933,35.933,0,0,1,6.3,6.7.663.663,0,0,1-.125.93.658.658,0,0,1-.4.137.667.667,0,0,1-.529-.261,34.523,34.523,0,0,0-6.046-6.444c-1.828-1.39-2.838-1.508-3.278-1.458a.722.722,0,0,0-.636.447l0,0c-.278.622.37,1.633,1.78,2.774a19.453,19.453,0,0,0,2.668,1.776.665.665,0,0,1,.29.307l.778-1.549a41.555,41.555,0,0,1,3.049,3.436,2.118,2.118,0,0,0-.183.86,2.129,2.129,0,0,0,2.128,2.125,2.125,2.125,0,0,0,2.121-2.125,2.114,2.114,0,0,0-.467-1.327,2.138,2.138,0,0,0-1.166-.741,43.424,43.424,0,0,0-4.092-4.584,1.59,1.59,0,0,1,.655-.446,1.837,1.837,0,0,1,.513-.064,5.757,5.757,0,0,1,1.736.358l9.272,2.945a4.805,4.805,0,0,1,1.615.776,3.216,3.216,0,0,1,.874,1.325l8.413,20.135a3.334,3.334,0,0,1,.306,2.127,2.43,2.43,0,0,1-1.376,1.4h0l-15.122,6.485a3.894,3.894,0,0,1-1.637.4Zm5.581-23.56-6.222,14.823a1.309,1.309,0,0,0,0,1.014,1.3,1.3,0,0,0,.715.723,1.305,1.305,0,0,0,.512.1,1.325,1.325,0,0,0,1.227-.813l6.221-14.821a1.319,1.319,0,0,0,0-1.018,1.312,1.312,0,0,0-.714-.721,1.318,1.318,0,0,0-.514-.106A1.331,1.331,0,0,0,9102.247-5591.378Zm-.053,10.173a3.456,3.456,0,0,0,3.453,3.453,3.458,3.458,0,0,0,3.452-3.453,3.457,3.457,0,0,0-3.452-3.452A3.456,3.456,0,0,0,9102.194-5581.2Zm-10.626-4.25a3.459,3.459,0,0,0,3.457,3.452,3.455,3.455,0,0,0,3.449-3.452,3.454,3.454,0,0,0-3.449-3.451A3.457,3.457,0,0,0,9091.568-5585.454Zm-7.111,16.715a3,3,0,0,1-.785-2l-1.652-19.666a5.431,5.431,0,0,1,.179-1.942,3.818,3.818,0,0,1,.833-1.383l3.87-4.058-2.421,5.293a3.369,3.369,0,0,0-.387,1.578,4.319,4.319,0,0,0,.387,1.691l8.558,20.489-6.713.507a2.291,2.291,0,0,1-.288.016A2.461,2.461,0,0,1,9084.457-5568.739Zm20.393-12.466a.8.8,0,0,1,.8-.8.8.8,0,0,1,.794.8.8.8,0,0,1-.794.8A.8.8,0,0,1,9104.85-5581.2Zm-10.622-4.25a.8.8,0,0,1,.8-.8.8.8,0,0,1,.794.8.8.8,0,0,1-.794.8A.8.8,0,0,1,9094.228-5585.454Z" transform="translate(-8931.441 7545.303)"/>
  </g>
</svg>
