<svg xmlns="http://www.w3.org/2000/svg" width="138" height="138" viewBox="0 0 138 138">
  <g id="Сгруппировать_1950" data-name="Сгруппировать 1950" transform="translate(-725 -1892)">
    <rect id="Прямоугольник_49" data-name="Прямоугольник 49" width="138" height="138" rx="16" transform="translate(725 1892)" fill="#fada78"/>
    <path id="_123123123123123" data-name="123123123123123" d="M9098.284-5571.892a2.088,2.088,0,0,1-2.089-2.088,2.088,2.088,0,0,1,2.089-2.086h2.5a2.088,2.088,0,0,1,1.853,1.126,13.806,13.806,0,0,0,8.693-6.135h-1.36a.421.421,0,0,1-.421-.42v-14.195a.418.418,0,0,1,.421-.417h1.822q-.192-.39-.409-.769a13.145,13.145,0,0,0-8.035-6.163,13.141,13.141,0,0,0-10.037,1.321,13.115,13.115,0,0,0-5.255,5.611h1.872a.418.418,0,0,1,.417.417v14.2a.419.419,0,0,1-.417.418h-3.841a.419.419,0,0,1-.418-.418v-1.157l-.22-.119a6.525,6.525,0,0,1-2.513-2.41,6.649,6.649,0,0,1-.94-3.413,6.659,6.659,0,0,1,.94-3.416,6.57,6.57,0,0,1,1.677-1.876c.037-.151.074-.3.115-.451a15.664,15.664,0,0,1,2.78-5.6,15.714,15.714,0,0,1,4.549-3.958,15.715,15.715,0,0,1,5.7-1.962,15.641,15.641,0,0,1,6.234.391,15.646,15.646,0,0,1,5.6,2.78,15.621,15.621,0,0,1,3.958,4.551,15.651,15.651,0,0,1,1.681,4.209,6.548,6.548,0,0,1,1.731,1.911,6.669,6.669,0,0,1,.939,3.415,6.665,6.665,0,0,1-.939,3.415,6.534,6.534,0,0,1-2.516,2.412l-.222.117v1.155a.417.417,0,0,1-.415.42h-.557a15.139,15.139,0,0,1-3.273,4.173,15.808,15.808,0,0,1-7.239,3.65,2.088,2.088,0,0,1-1.956,1.36Z" transform="translate(-8305.955 7549.849)"/>
  </g>
</svg>
