<svg xmlns="http://www.w3.org/2000/svg" width="138" height="138" viewBox="0 0 138 138">
  <g id="Сгруппировать_1951" data-name="Сгруппировать 1951" transform="translate(-1387 -1895)">
    <rect id="Прямоугольник_50" data-name="Прямоугольник 50" width="138" height="138" rx="16" transform="translate(1387 1895)" fill="#acedbd"/>
    <path id="asdasdasdasdasda" d="M9111.883-5571.136h-.917v8.475h-10.829v-8.844l4.332-4.936,3.812.371-1.932-5.924.014,0a24.807,24.807,0,0,1,6.438,2.628,6.466,6.466,0,0,1,2.489,2.726,4.2,4.2,0,0,1,.4,1.4l1.27,12.568-5.072,0Zm-8.68.911c0,.768,1.089,1.388,2.43,1.388s2.433-.621,2.433-1.388-1.091-1.39-2.433-1.39S9103.2-5570.991,9103.2-5570.226Zm-15.214-.911h-.915v8.475l-5.074,0,1.27-12.568a4.191,4.191,0,0,1,.4-1.4,6.455,6.455,0,0,1,2.488-2.726,24.822,24.822,0,0,1,6.438-2.628l.013,0-1.932,5.924,3.812-.371,4.7,4.825v8.951l-11.2,0Zm15.8-11.259,1.413.287,1.646,4.752-2.677-.342-4.524,5.03Zm-9.007,5.039-2.819.26,1.782-5.012,1.413-.287,4.488,9.727Zm-.562-7.962a6.771,6.771,0,0,1-2.307-5.053c0-.08,0-.161,0-.24a2.563,2.563,0,0,1-1.743-2.538,1.884,1.884,0,0,1,1.244-1.911l.306-5.312.014,0v-.065c0-3.064,3.584-5.558,7.99-5.558s7.989,2.493,7.989,5.558c0,.054,0,.107,0,.182v.008l.26,5.171a1.883,1.883,0,0,1,1.3,1.933,2.563,2.563,0,0,1-1.741,2.538c0,.08,0,.161,0,.24a6.774,6.774,0,0,1-2.307,5.053,8.166,8.166,0,0,1-5.506,2.068A8.166,8.166,0,0,1,9094.224-5585.318Zm-1.229-5.687a5.711,5.711,0,0,0-.036.634c0,3.353,3.037,6.079,6.773,6.079s6.771-2.726,6.771-6.079a5.276,5.276,0,0,0-.037-.634l-.068-.6.6.016h.027a1.424,1.424,0,0,0,1.217-1.563.937.937,0,0,0-.355-.833,4.069,4.069,0,0,1-1.667,1.3,1.527,1.527,0,0,1-.456.057,10.691,10.691,0,0,1-1.743-.245h-.009l0,0-.019,0a22.456,22.456,0,0,0-4.1-.48h-.152a24.91,24.91,0,0,0-3.543.3l-.453.066-.052.007-.009,0-.037,0a16,16,0,0,1-2.063.22,2.327,2.327,0,0,1-.681-.083,2.328,2.328,0,0,1-1.3-1.153.929.929,0,0,0-.37.844,1.424,1.424,0,0,0,1.217,1.563h.026l.6-.016Zm6.668-5.151a22.146,22.146,0,0,1,6.594.854.308.308,0,0,0,.116.02.346.346,0,0,0,.327-.232.329.329,0,0,0-.015-.263.343.343,0,0,0-.2-.18,21.708,21.708,0,0,0-6.824-.893h-.007a25.817,25.817,0,0,0-7.084.89.343.343,0,0,0-.2.172.341.341,0,0,0-.022.264.338.338,0,0,0,.328.242.358.358,0,0,0,.106-.016,25.6,25.6,0,0,1,6.873-.858Zm-2.362-4.286c0,.766,1.09,1.388,2.432,1.388s2.43-.622,2.43-1.388-1.091-1.388-2.43-1.388S9097.3-5601.208,9097.3-5600.443Z" transform="translate(-7645.479 7545.234)"/>
  </g>
</svg>
