<svg xmlns="http://www.w3.org/2000/svg" width="138" height="138" viewBox="0 0 138 138">
  <g id="Сгруппировать_1952" data-name="Сгруппировать 1952" transform="translate(-98 -2119)">
    <rect id="Прямоугольник_51" data-name="Прямоугольник 51" width="138" height="138" rx="16" transform="translate(98 2119)" fill="#e1aced"/>
    <path id="_1111111111111111111111111111111111" data-name="1111111111111111111111111111111111" d="M9107.5-5572.523a3.62,3.62,0,0,1-2.516-1.2l-6.176-7.475,5.084-6.014,8.122,7.158a3.621,3.621,0,0,1,.938,2.432,3.65,3.65,0,0,1-1.206,2.708l-1.622,1.461a3.618,3.618,0,0,1-2.428.935C9107.633-5572.518,9107.567-5572.52,9107.5-5572.523Zm-23.105-1.464-1.462-1.623a3.605,3.605,0,0,1-.93-2.626,3.618,3.618,0,0,1,1.2-2.514l18.828-15.555.021-.02.011-.01a.43.43,0,0,1,.035-.032,7.266,7.266,0,0,1-.548-2.74,6.215,6.215,0,0,1,2.147-5.146c1.762-1.6,5.666-1.245,5.257-.768l-2.149,2.168a2.878,2.878,0,0,0-.853,2.058,2.879,2.879,0,0,0,.853,2.058l1.676,1.676a2.894,2.894,0,0,0,2.059.854,2.89,2.89,0,0,0,2.059-.854l2.39-2.336c.566.783.394,3.224-.427,4.986-1.019,1.866-2.877,2.672-5.606,2.672a7.86,7.86,0,0,1-2.955-.664l-.007.009a.083.083,0,0,0-.017.015l-16.442,18.66a3.626,3.626,0,0,1-2.433.936A3.652,3.652,0,0,1,9084.4-5573.987Zm1.156-4.371a1.821,1.821,0,0,0,1.821,1.819,1.821,1.821,0,0,0,1.819-1.819,1.821,1.821,0,0,0-1.819-1.82A1.822,1.822,0,0,0,9085.553-5578.358Zm2.656-17.128-3.4-2.036-2.152-4.041,1.269-1.267,3.694,2.313,2.014,3,5.035,4.657-2.218,1.956Z" transform="translate(-8929.527 7774.972)"/>
  </g>
</svg>
