<svg xmlns="http://www.w3.org/2000/svg" width="138" height="138" viewBox="0 0 138 138">
  <g id="Сгруппировать_1953" data-name="Сгруппировать 1953" transform="translate(-725 -2119)">
    <rect id="Прямоугольник_52" data-name="Прямоугольник 52" width="138" height="138" rx="16" transform="translate(725 2119)" fill="#acbbed"/>
    <path id="_111111111111111111111111111111111111" data-name="111111111111111111111111111111111111" d="M9111.872-5569.868v-1.8h2.025v1.8a1.015,1.015,0,0,1-1.016,1.012A1.013,1.013,0,0,1,9111.872-5569.868Zm-4.768,0v-1.8h2.023v1.8a1.013,1.013,0,0,1-1.014,1.012A1.012,1.012,0,0,1,9107.1-5569.868Zm-4.768,0v-1.8h2.022v1.8a1.015,1.015,0,0,1-1.014,1.012A1.013,1.013,0,0,1,9102.337-5569.868Zm-4.77,0v-1.8h2.024v1.8a1.015,1.015,0,0,1-1.014,1.012A1.012,1.012,0,0,1,9097.567-5569.868Zm-4.771,0v-1.8h2.024v1.8a1.012,1.012,0,0,1-1.011,1.012A1.014,1.014,0,0,1,9092.8-5569.868Zm-4.769,0v-1.8h2.024v1.8a1.013,1.013,0,0,1-1.012,1.012A1.013,1.013,0,0,1,9088.028-5569.868Zm.051-2.695a1.985,1.985,0,0,1-1.983-1.982v-11.893h5.213a.988.988,0,0,0,.869-.515l.109-.2,3.194,5.885a.989.989,0,0,0,.87.52h.029a.988.988,0,0,0,.868-.567l5.688-12.023,2.958,6.333a.991.991,0,0,0,.9.57h9.035v11.893a1.983,1.983,0,0,1-1.981,1.982Zm29.035-1.932v-2.022h1.8a1.01,1.01,0,0,1,1.013,1.01,1.013,1.013,0,0,1-1.013,1.012Zm-34.1,0a1.012,1.012,0,0,1-1.01-1.012,1.01,1.01,0,0,1,1.01-1.01h1.8v2.022Zm34.1-4.766v-2.026h1.8a1.013,1.013,0,0,1,1.013,1.012,1.014,1.014,0,0,1-1.013,1.014Zm-34.1,0a1.013,1.013,0,0,1-1.01-1.014,1.012,1.012,0,0,1,1.01-1.012h1.8v2.026Zm13.28-4.671-3.132-5.771a.989.989,0,0,0-.87-.518.99.99,0,0,0-.87.517l-.7,1.285H9086.1v-11.892a1.986,1.986,0,0,1,1.983-1.984h25.768a1.985,1.985,0,0,1,1.981,1.984v11.892h-8.4l-3.586-7.669a1,1,0,0,0-.895-.572,1,1,0,0,0-.9.569l-5.751,12.16Zm20.823-.1v-2.021h1.8a1.01,1.01,0,0,1,1.013,1.007,1.013,1.013,0,0,1-1.013,1.014Zm-34.1,0a1.012,1.012,0,0,1-1.01-1.014,1.01,1.01,0,0,1,1.01-1.007h1.8v2.021Zm34.1-4.767v-2.023h1.8a1.01,1.01,0,0,1,1.013,1.011,1.013,1.013,0,0,1-1.013,1.013Zm-34.1,0a1.012,1.012,0,0,1-1.01-1.013,1.01,1.01,0,0,1,1.01-1.011h1.8v2.023Zm34.1-4.769v-2.025h1.8a1.014,1.014,0,0,1,1.013,1.014,1.013,1.013,0,0,1-1.013,1.011Zm-34.1,0a1.012,1.012,0,0,1-1.01-1.011,1.013,1.013,0,0,1,1.01-1.014h1.8v2.025Zm34.1-4.77v-2.023h1.8a1.012,1.012,0,0,1,1.013,1.011,1.013,1.013,0,0,1-1.013,1.012Zm-34.1,0a1.012,1.012,0,0,1-1.01-1.012,1.011,1.011,0,0,1,1.01-1.011h1.8v2.023Zm30.556-4.853h-1.692v-1.8a1.012,1.012,0,0,1,1.01-1.011,1.014,1.014,0,0,1,1.014,1.011v1.8Zm-4.767,0h-1.694v-1.8a1.012,1.012,0,0,1,1.011-1.011,1.013,1.013,0,0,1,1.014,1.011v1.8Zm-4.771,0h-1.691v-1.8a1.012,1.012,0,0,1,1.009-1.011,1.013,1.013,0,0,1,1.013,1.011v1.8Zm-4.768,0h-1.693v-1.8a1.012,1.012,0,0,1,1.011-1.011,1.013,1.013,0,0,1,1.013,1.011v1.8Zm-4.77,0H9092.8v-1.8a1.012,1.012,0,0,1,1.012-1.011,1.011,1.011,0,0,1,1.01,1.011v1.8Zm-4.769,0h-1.694v-1.8a1.012,1.012,0,0,1,1.012-1.011,1.011,1.011,0,0,1,1.012,1.011v1.8Z" transform="translate(-8305.955 7773.427)"/>
  </g>
</svg>
