<svg xmlns="http://www.w3.org/2000/svg" width="109.131" height="28.594" viewBox="0 0 109.131 28.594">
  <path id="kaercher-5" d="M76.752,105.5l54.147-.021c.463,0,.4-.07.4.386v8.03c0,.456.056.407-.393.407l-108.294.021c-.428,0-.428,0-.428-.428V105.9c0-.4,0-.4.393-.4ZM99.593,93.471v7.1c0,.217-.035.3-.281.295h-4.06c-.259,0-.309-.077-.309-.316V95.6c0-.231,0-.316-.3-.316H90.287c-.224,0-.273.063-.273.281V100.6c0,.2,0,.274-.252.266H85.609c-.217,0-.252-.07-.252-.273V86.269c0-.2.049-.266.259-.266h4.152c.231,0,.245.084.245.274v4.909c0,.231.056.288.288.288h4.362c.224,0,.281-.049.281-.273V86.29c0-.217.049-.288.281-.288H99.34c.224,0,.252.077.252.274Zm-62.113,7.4H32.016c-.168,0-.217-.1-.288-.21-1.108-1.788-2.223-3.57-3.324-5.358a.421.421,0,0,0-.449-.245,7.083,7.083,0,0,1-.863,0c-.21,0-.266.049-.266.259v5.225c0,.259-.049.337-.323.337H22.415c-.2,0-.245-.042-.245-.238V86.269c0-.21.042-.266.252-.266h4.124c.224,0,.281.063.281.288V91.3c0,.21.035.3.274.288a2.688,2.688,0,0,0,1.171-.056c.309-.168.463-.617.7-.954q1.4-2.167,2.805-4.348a.47.47,0,0,1,.449-.252h4.979a.382.382,0,0,1-.105.252q-2.286,3.282-4.53,6.543a.386.386,0,0,0,0,.519c1.606,2.426,3.2,4.909,4.8,7.307a2.527,2.527,0,0,0,.105.266Zm64.9-7.434V86.3c0-.238.056-.3.295-.3h11.312c.21,0,.295.035.3.266,0,1.066.035,2.1.07,3.2,0,.224-.07.252-.266.252H107.37c-.267,0-.365.049-.351.337a12.324,12.324,0,0,1,0,1.346c0,.245.056.316.309.316h5.463c.252,0,.309.07.309.309v2.63c0,.245-.056.316-.309.316h-5.435c-.281,0-.344.084-.337.351v1.641c0,.217.049.281.281.281h7.013c.231,0,.316,0,.309.3-.042,1.024-.063,2.048-.077,3.072,0,.217-.049.309-.3.3H102.657c-.245,0-.288-.077-.288-.3q.007-3.612.007-7.181Zm-26.495.014A9.032,9.032,0,0,0,76,95.126a2.448,2.448,0,0,0,2.455,2.258,9.5,9.5,0,0,0,4.131-.5c.154-.049.2-.049.231.126.133,1.017.273,2.027.435,3.037,0,.154,0,.21-.147.259a11.642,11.642,0,0,1-5.4.792,8.843,8.843,0,0,1-2.931-.7,5.9,5.9,0,0,1-3.359-3.871,10.456,10.456,0,0,1-.056-5.961,6.143,6.143,0,0,1,4.537-4.4,12.729,12.729,0,0,1,5.7-.21,14.24,14.24,0,0,1,1.4.323c.147.042.21.091.189.288-.147,1.038-.274,2.1-.393,3.128,0,.2-.056.295-.3.231a11.087,11.087,0,0,0-4.074-.351,2.4,2.4,0,0,0-2.49,2.469A9.454,9.454,0,0,0,75.882,93.45Zm-23.3-4.3H51.063c-.154,0-.21,0-.21-.189V86.157c0-.168.063-.2.21-.2h3.072c.147,0,.189.042.189.182v2.805c0,.154-.056.175-.189.175-.526.021-1.038.028-1.55.028Zm-12.932,0H38.138c-.154,0-.21,0-.21-.189V86.157c0-.161.056-.2.21-.2h3.044c.154,0,.2.049.2.21v2.805c0,.175-.07.189-.21.189-.5-.021-1.01-.014-1.522-.014Zm91.456,11.4-3.45-5.239c-.112-.175-.126-.238.091-.323a3.45,3.45,0,0,0,1.368-1.024,4.734,4.734,0,0,0,1.017-3.072,4.208,4.208,0,0,0-1.964-3.843,7.266,7.266,0,0,0-3.731-1c-2.469-.049-4.909,0-7.406-.042-.21,0-.259.07-.259.274V100.6c0,.217.063.266.266.259h4.1c.238,0,.288-.07.288-.295V96.234c0-.224.056-.288.281-.281h1.4a.337.337,0,0,1,.365.224c.75,1.48,1.515,2.959,2.265,4.439a.372.372,0,0,0,.386.238h4.909a.449.449,0,0,0,.266,0A1.162,1.162,0,0,0,131.109,100.547Zm-5.933-8.64a1.213,1.213,0,0,1-1.262.926h-2.3c-.182,0-.21-.077-.2-.231V89.712c0-.105,0-.231.147-.224a22.274,22.274,0,0,1,2.651.07,1.087,1.087,0,0,1,1.024,1.024,2.805,2.805,0,0,1-.056,1.325ZM67.032,95.084a3.689,3.689,0,0,0,1.9-1.536,5.126,5.126,0,0,0,.7-3.317,4,4,0,0,0-1.7-3.037,7.083,7.083,0,0,0-3.969-1.15c-2.469-.049-4.909,0-7.406-.042-.224,0-.252.077-.252.273V100.6c0,.21.049.266.259.259h4.06c.259,0,.337-.056.33-.323v-4.3c0-.231.056-.295.281-.288h1.346a.407.407,0,0,1,.428.266c.743,1.466,1.5,2.917,2.237,4.383a.4.4,0,0,0,.407.259h5.176Zm-2.342-3.177a1.22,1.22,0,0,1-1.262.926H61.078c-.161,0-.175-.077-.175-.2V89.684c0-.1,0-.2.14-.2a22.309,22.309,0,0,1,2.651.07,1.073,1.073,0,0,1,1.017,1A3.044,3.044,0,0,1,64.689,91.907ZM54.724,100.6Q51.807,93.422,48.9,86.248A.33.33,0,0,0,48.539,86H43.7a.351.351,0,0,0-.386.259Q40.789,92.637,38.251,99c-.245.61-.484,1.22-.7,1.837a.379.379,0,0,0,.084,0h4.685c.161,0,.189-.091.231-.21.2-.7.428-1.339.624-2.006a.344.344,0,0,1,.393-.288h4.986a.351.351,0,0,1,.407.309c.189.645.4,1.283.582,1.936.056.2.133.266.344.259h4.692c.238.042.231-.035.147-.238Zm-10.351-5.68c.561-1.816,1.178-3.591,1.718-5.4.519,1.809,1.122,3.584,1.669,5.4Z" transform="translate(-22.17 -85.726)"/>
</svg>
