<svg xmlns="http://www.w3.org/2000/svg" width="48.773" height="48.867" viewBox="0 0 48.773 48.867">
  <path id="Контур_405" data-name="Контур 405" d="M4,48.867a4,4,0,0,1-4-4V41.435H48.773v3.434a4,4,0,0,1-4,4Zm13.273-4.433a1,1,0,0,0,1,1h13a1,1,0,1,0,0-2h-13A1,1,0,0,0,17.273,44.434Zm-13.5-5.5v-29H7.679a3.987,3.987,0,0,0,3.708,2.5H22.773v6.5a1,1,0,0,0,1,1h2a1,1,0,0,0,1-1v-6.5H38.16a3.987,3.987,0,0,0,3.707-2.5h3.906v29H28.085a9.458,9.458,0,0,0,4.45-2.885,7.124,7.124,0,0,0,1.739-4.614c0-.054,0-.107,0-.16,0-.122,0-.247,0-.367l-.03-8.973H15.311l-.031,9.2c0,.107-.007.205-.007.3a7.124,7.124,0,0,0,1.739,4.614,9.453,9.453,0,0,0,4.449,2.885v0Zm5.2-13.746v8.14a1,1,0,0,0,1,1h3.947v-2H10.972v-6.14h2.947v-2H9.971A1,1,0,0,0,8.971,25.188ZM0,7.433V4A4,4,0,0,1,4,0H44.773a4,4,0,0,1,4,4V7.432H0Zm30.773-4a1.5,1.5,0,1,0,1.5-1.5A1.5,1.5,0,0,0,30.773,3.434Zm-8,0a1.5,1.5,0,1,0,1.5-1.5A1.5,1.5,0,0,0,22.773,3.434Zm-8,0a1.5,1.5,0,1,0,1.5-1.5A1.5,1.5,0,0,0,14.773,3.434Z"/>
</svg>
