<svg xmlns="http://www.w3.org/2000/svg" width="30" height="35" viewBox="0 0 30 35">
  <g id="Сгруппировать_1891" data-name="Сгруппировать 1891" transform="translate(-763 -446)">
    <rect id="Прямоугольник_22" data-name="Прямоугольник 22" width="30" height="35" rx="2" transform="translate(763 446)"/>
    <circle id="Эллипс_2" data-name="Эллипс 2" cx="9" cy="9" r="9" transform="translate(769 456)" fill="#fff"/>
    <circle id="Эллипс_3" data-name="Эллипс 3" cx="8" cy="8" r="8" transform="translate(770 457)"/>
    <path id="Вычитание_1" data-name="Вычитание 1" d="M4978.817-3125.948a6.981,6.981,0,0,1-3.156-.821l-.056-.026a7.559,7.559,0,0,0-3.389-.845c-.106,0-.215,0-.323.007a7.688,7.688,0,0,0-3.96,1.431,6.961,6.961,0,0,1,2.114-4.814,6.962,6.962,0,0,1,4.883-1.985,6.982,6.982,0,0,1,4.728,1.838,6.98,6.98,0,0,1,2.242,4.506,6.393,6.393,0,0,1-2.865.706C4978.962-3125.949,4978.891-3125.948,4978.817-3125.948Z" transform="translate(-4196.93 3591)" fill="#fff"/>
  </g>
</svg>
