<svg xmlns="http://www.w3.org/2000/svg" width="28.001" height="48" viewBox="0 0 28.001 48">
  <g id="Сгруппировать_1941" data-name="Сгруппировать 1941" transform="translate(-872 -202)">
    <path id="Контур_398" data-name="Контур 398" d="M7897-4467.5v-.5h-14v.5a1.5,1.5,0,0,1-1.5,1.5,1.5,1.5,0,0,1-1.5-1.5v-.5h-3a1,1,0,0,1-1-1v-30h28v30a1,1,0,0,1-1,1h-3v.5a1.5,1.5,0,0,1-1.5,1.5A1.5,1.5,0,0,1,7897-4467.5Zm7-34.5h-28v-11a1,1,0,0,1,1-1h26a1,1,0,0,1,1,1v11Z" transform="translate(-7004 4716)"/>
    <rect id="Прямоугольник_110" data-name="Прямоугольник 110" width="2" height="7" rx="1" transform="translate(875 204)" fill="#fff"/>
    <rect id="Прямоугольник_111" data-name="Прямоугольник 111" width="2" height="7" rx="1" transform="translate(875 220)" fill="#fff"/>
  </g>
</svg>
