<svg xmlns="http://www.w3.org/2000/svg" width="55" height="42" viewBox="0 0 55 42">
  <path id="Контур_401" data-name="Контур 401" d="M1,42a1,1,0,0,1-1-1V1A1,1,0,0,1,1,0H20a1,1,0,0,1,1,1V4.911H3.659a.5.5,0,0,0-.5.5v1a.5.5,0,0,0,.5.5H16c0,.03,0,.059,0,.089v3.91H3.659a.5.5,0,0,0-.5.5v1a.5.5,0,0,0,.5.5H16v4H3.659a.5.5,0,0,0-.5.5v1a.5.5,0,0,0,.5.5H16V32a1,1,0,0,0,1,1h4v8a1,1,0,0,1-1,1ZM8,32a2,2,0,1,0,2-2A2,2,0,0,0,8,32Zm20,8.5a.5.5,0,0,1-.5-.5V39a.5.5,0,0,1,.5-.5h4.5v-5h8v5H45a.5.5,0,0,1,.5.5v1a.5.5,0,0,1-.5.5ZM19,31a1,1,0,0,1-1-1V9a1,1,0,0,1,1-1H54a1,1,0,0,1,1,1V30a1,1,0,0,1-1,1Z"/>
</svg>
