<svg xmlns="http://www.w3.org/2000/svg" width="36.876" height="48.609" viewBox="0 0 36.876 48.609">
  <path id="Контур_402" data-name="Контур 402" d="M16.2,48.609H13.968V44.7H3.353A3.356,3.356,0,0,1,0,41.345V34.082H36.876v7.263A3.356,3.356,0,0,1,33.524,44.7H22.908v3.91H20.673V44.7H16.2v3.911h0Zm4.515-9.4a1.676,1.676,0,1,0,1.677-1.675A1.679,1.679,0,0,0,20.716,39.212Zm-7.822,0a1.677,1.677,0,1,0,1.677-1.675A1.679,1.679,0,0,0,12.894,39.212ZM0,30.73V3.352A3.356,3.356,0,0,1,3.353,0H33.524a3.356,3.356,0,0,1,3.352,3.352V30.729H0ZM13.638,11.562a10.325,10.325,0,0,0-1.9,5.759,6.7,6.7,0,1,0,13.409,0,20.149,20.149,0,0,0-1.074-6.165,6.335,6.335,0,0,1-1.88.369,3.069,3.069,0,0,1-1.973-.7,4.075,4.075,0,0,1-1.449-2.137,5.951,5.951,0,0,1-.138-2.123A20.464,20.464,0,0,0,13.638,11.562Zm2.006,6.876c0-1.543,2.793-5.016,2.793-5.016s2.794,3.473,2.794,5.016a2.793,2.793,0,1,1-5.587,0Z"/>
</svg>
