<svg xmlns="http://www.w3.org/2000/svg" width="48.746" height="58.513" viewBox="0 0 48.746 58.513">
  <path id="Контур_404" data-name="Контур 404" d="M7.209,58.513A7.21,7.21,0,0,1,4.018,44.837V9.985c.055-1.1.473-1.632,1.275-1.632a2.935,2.935,0,0,1,.945.187c.683.234,1.409.519,2.158.846a12.43,12.43,0,0,1,3.205-7.2A7.92,7.92,0,0,1,17.3,0c.262,0,.533.01.8.029,4.129.3,7.377,2.724,9.394,7.022a20.2,20.2,0,0,1,1.2,3.327,2.119,2.119,0,0,1,1.83,1.666l.882,4.148a2.135,2.135,0,0,1-.922,2.222l7.653,32.351c.216-.01.43-.015.635-.015a13.14,13.14,0,0,1,3.755.541,14.27,14.27,0,0,1,5.528,3.138,1.915,1.915,0,0,1,.679,1.344.689.689,0,0,1-.361.54l-14.347.037V51.6l.005,0a10.579,10.579,0,0,1,1.574-.486l-7.63-32.251a2.11,2.11,0,0,1-1.547-1.614L25.554,13.1a2.122,2.122,0,0,1,.692-2.05,17.478,17.478,0,0,0-1.079-2.979C23.542,4.647,21.1,2.795,17.924,2.567c-.214-.015-.426-.023-.629-.023a5.384,5.384,0,0,0-3.923,1.464c-1.876,1.8-2.4,4.881-2.547,6.556a36.3,36.3,0,0,1,3.35,2.025A25.78,25.78,0,0,1,21.266,19.6a20.841,20.841,0,0,1,3.456,11.06c.263,8.962.371,13.785-.26,16.919s-1.534,4.549-4.313,6.552c-1.77,1.275-4.664,2-7.729,2.16A7.149,7.149,0,0,1,7.209,58.513Zm0-11.027A3.817,3.817,0,1,0,11.026,51.3,3.821,3.821,0,0,0,7.209,47.486ZM17.534,22.56a.912.912,0,0,0-.406.106.774.774,0,0,0-.419.451,1.021,1.021,0,0,0,.074.7,5.094,5.094,0,0,1,.436.889,5.7,5.7,0,0,1,.24.993.825.825,0,0,0,.824.8h.022a.869.869,0,0,0,.855-.788,6.708,6.708,0,0,0-.289-1.456,5.2,5.2,0,0,0-.637-1.218A.852.852,0,0,0,17.534,22.56Zm-8.98-9.179a.746.746,0,0,0-.669.432.773.773,0,0,0-.095.608,1.026,1.026,0,0,0,.453.538,24.011,24.011,0,0,1,4.277,2.786A14.272,14.272,0,0,1,15.2,20.892a.9.9,0,0,0,.663.353.884.884,0,0,0,.753-1.295A16.787,16.787,0,0,0,13.5,16.314,23.312,23.312,0,0,0,9.008,13.5,1,1,0,0,0,8.554,13.382Z" transform="translate(0 0)"/>
</svg>
