<svg width="11" height="20" viewBox="0 0 11 20" fill="none" xmlns="http://www.w3.org/2000/svg">
<path fill-rule="evenodd" clip-rule="evenodd" d="M10.6345 19.708C10.2295 20.098 9.57446 20.098 9.17046 19.708L0.607457 11.444C0.415778 11.2619 0.263151 11.0426 0.158856 10.7996C0.0545622 10.5566 0.000780106 10.295 0.000780106 10.0305C0.000780106 9.76609 0.0545622 9.50442 0.158856 9.26142C0.263151 9.01843 0.415778 8.79918 0.607457 8.61702L9.23246 0.292021C9.4282 0.105968 9.68743 0.0013942 9.95748 -0.000463112C10.2275 -0.00232043 10.4882 0.098678 10.6865 0.282021C10.7847 0.372561 10.8633 0.482302 10.9174 0.60445C10.9715 0.726597 10.9999 0.858549 11.0009 0.992135C11.002 1.12572 10.9756 1.2581 10.9234 1.38107C10.8712 1.50403 10.7943 1.61497 10.6975 1.70702L2.80346 9.32402C2.70754 9.41511 2.63116 9.52476 2.57897 9.64631C2.52677 9.76785 2.49986 9.89874 2.49986 10.031C2.49986 10.1633 2.52677 10.2942 2.57897 10.4157C2.63116 10.5373 2.70754 10.6469 2.80346 10.738L10.6345 18.295C10.7303 18.386 10.8067 18.4956 10.8589 18.6171C10.9111 18.7385 10.938 18.8693 10.938 19.0015C10.938 19.1337 10.9111 19.2645 10.8589 19.386C10.8067 19.5075 10.7303 19.617 10.6345 19.708Z" fill="black"/>
</svg>
