<svg width="11" height="20" viewBox="0 0 11 20" fill="none" xmlns="http://www.w3.org/2000/svg">
<g clip-path="url(#clip0_3044_484)">
<path fill-rule="evenodd" clip-rule="evenodd" d="M0.365543 19.708C0.770543 20.098 1.42554 20.098 1.82954 19.708L10.3925 11.444C10.5842 11.2619 10.7368 11.0426 10.8411 10.7996C10.9454 10.5566 10.9992 10.295 10.9992 10.0305C10.9992 9.76609 10.9454 9.50442 10.8411 9.26142C10.7368 9.01843 10.5842 8.79918 10.3925 8.61702L1.76754 0.292021C1.5718 0.105968 1.31257 0.0013942 1.04252 -0.000463112C0.772467 -0.00232043 0.51183 0.098678 0.313543 0.282021C0.215315 0.372561 0.136719 0.482302 0.0826236 0.60445C0.0285279 0.726597 8.37087e-05 0.858549 -0.000947482 0.992135C-0.00197867 1.12572 0.024425 1.2581 0.0766286 1.38107C0.128832 1.50403 0.205724 1.61497 0.302543 1.70702L8.19654 9.32402C8.29246 9.41511 8.36884 9.52476 8.42103 9.64631C8.47323 9.76785 8.50014 9.89874 8.50014 10.031C8.50014 10.1633 8.47323 10.2942 8.42103 10.4157C8.36884 10.5373 8.29246 10.6469 8.19654 10.738L0.365543 18.295C0.269653 18.386 0.193291 18.4956 0.141109 18.6171C0.0889265 18.7385 0.0620157 18.8693 0.0620157 19.0015C0.0620157 19.1337 0.0889265 19.2645 0.141109 19.386C0.193291 19.5075 0.269653 19.617 0.365543 19.708Z" fill="black"/>
</g>
<defs>
<clipPath id="clip0_3044_484">
<rect width="11" height="20" fill="white"/>
</clipPath>
</defs>
</svg>
